<svg xmlns="http://www.w3.org/2000/svg" width="70.5" height="70.5" viewBox="0 0 70.5 70.5">
  <g id="Icon-Growth" transform="translate(0.25 -0.25)">
    <path id="Path_320" data-name="Path 320" d="M35,70A35,35,0,1,1,70,35,35.04,35.04,0,0,1,35,70M35,.579A34.421,34.421,0,1,0,69.421,35,34.46,34.46,0,0,0,35,.579" transform="translate(0 0.5)" fill="none" stroke="#575757" stroke-width="0.5"/>
    <path id="Path_326" data-name="Path 326" d="M64.632,62.693H61.739V42.444a.578.578,0,0,0-.579-.579H56.533a.578.578,0,0,0-.579.579V62.693H54.411V48.23a.578.578,0,0,0-.579-.579H49.2a.578.578,0,0,0-.579.579V62.693H47.083V54.015a.578.578,0,0,0-.579-.579H41.876a.578.578,0,0,0-.579.579v8.678H31.655V38.973a.579.579,0,0,0-1.157,0v24.3a.578.578,0,0,0,.579.579H64.632a.579.579,0,0,0,0-1.157m-22.177-8.1h3.471v8.1H42.455Zm7.328-5.785h3.471V62.693H49.783Zm7.329-5.785h3.471v19.67H57.111ZM34.094,54.373a.578.578,0,0,1,.1-.812L55.266,36.921,53.68,35.335a.7.7,0,0,1,.5-1.2h3.965a.7.7,0,0,1,.7.7V38.8a.7.7,0,0,1-1.2.5L56.09,37.746,34.906,54.469a.578.578,0,0,1-.812-.1" transform="translate(-12.855 -14.387)" fill="silver"/>
  </g>
</svg>
