<svg xmlns="http://www.w3.org/2000/svg" width="70.5" height="70.5" viewBox="0 0 70.5 70.5">
  <g id="Icon-Opportunity" transform="translate(0.25 0.25)">
    <path id="Path_323" data-name="Path 323" d="M461.871,70a35,35,0,1,1,35-35,35.04,35.04,0,0,1-35,35m0-69.421A34.421,34.421,0,1,0,496.292,35,34.46,34.46,0,0,0,461.871.579" transform="translate(-426.871)" fill="none" stroke="#575757" stroke-width="0.5"/>
    <path id="Path_327" data-name="Path 327" d="M469.578,44.906h3.45a.578.578,0,0,0,.578-.579v-3.45a.578.578,0,0,0-.578-.579h-3.45a.578.578,0,0,0-.578.579v3.45a.579.579,0,0,0,.578.579m.578-3.45h2.293v2.293h-2.293Zm-7.394,10.81h3.45a.578.578,0,0,0,.578-.579v-3.45a.578.578,0,0,0-.578-.579h-3.45a.578.578,0,0,0-.578.579v3.45a.578.578,0,0,0,.578.579m.579-3.45h2.293v2.293h-2.293Zm23.319-1.157h-3.45a.578.578,0,0,0-.579.579v3.45a.578.578,0,0,0,.579.579h3.45a.578.578,0,0,0,.578-.579v-3.45a.578.578,0,0,0-.578-.579m-.578,3.45h-2.293V48.815h2.293Zm-9.688-6.2h3.45a.578.578,0,0,0,.578-.579v-3.45a.578.578,0,0,0-.578-.579h-3.45a.578.578,0,0,0-.578.579v3.45a.579.579,0,0,0,.578.579m.578-3.45h2.293v2.293h-2.293ZM491.5,35.5H457.948a.578.578,0,0,0-.578.579v27.77a.578.578,0,0,0,.578.579H491.5a.578.578,0,0,0,.578-.579V36.078a.578.578,0,0,0-.578-.579M474.726,45.715l5.035,5.405H469.692Zm-5.785,17.528V52.277h11.571V63.243c0,.009,0,.016.005.025h-3.351V58.016a.578.578,0,0,0-.579-.579h-3.45a.578.578,0,0,0-.579.579v5.253h-3.624c0-.009.005-.016.005-.025m4.776-4.649h2.293v4.674h-2.293Zm17.209,4.674h-9.262c0-.009.005-.016.005-.025V54.831l.963.963v3.253a.578.578,0,0,0,.579.579h3.253l1.33,1.33h-2.669a.579.579,0,0,0,0,1.157h4.066a.587.587,0,0,0,.221-.045.58.58,0,0,0,.357-.534V57.468a.578.578,0,1,0-1.157,0v2.669l-1.373-1.373V55.6a.578.578,0,0,0-.578-.579h-3.169l-1.823-1.823V51.7a.554.554,0,0,0-.017-.082.545.545,0,0,0-.026-.129.551.551,0,0,0-.071-.116.537.537,0,0,0-.042-.068l-2.131-2.287,4.112-4.111h3.166a.579.579,0,0,0,.578-.579V41.161l1.373-1.373v2.669a.578.578,0,1,0,1.157,0V38.392a.58.58,0,0,0-.358-.534.571.571,0,0,0-.22-.045h-4.066a.579.579,0,0,0,0,1.157h2.67L486.465,40.3H483.21a.578.578,0,0,0-.579.579v3.255l-4.038,4.037-3.444-3.7a.6.6,0,0,0-.846,0l-3.444,3.7L466.792,44.1V40.877a.578.578,0,0,0-.578-.579h-3.226l-1.328-1.328h2.669a.579.579,0,1,0,0-1.157h-4.065a.581.581,0,0,0-.579.579v4.065a.579.579,0,0,0,1.157,0V39.788l1.343,1.343v3.2a.578.578,0,0,0,.578.579h3.2l4.112,4.111L467.939,51.3a.533.533,0,0,0-.041.068.556.556,0,0,0-.072.116,18.537,18.537,0,0,0-.042.211v1.5l-1.823,1.823h-3.2a.578.578,0,0,0-.578.579v3.2l-1.343,1.343V57.468a.579.579,0,0,0-1.157,0v4.065a.581.581,0,0,0,.358.534.584.584,0,0,0,.221.045h4.065a.579.579,0,1,0,0-1.157h-2.669l1.33-1.33h3.224a.578.578,0,0,0,.578-.579V55.823l.992-.992v8.413c0,.009,0,.016.005.025h-9.262V36.656h32.4Zm-4.844-5.662-1.433-1.432h1.433Zm-.776.861h-1.517V56.95Zm-1.517-15.493v-1.52h1.52Zm2.293-.657v1.431h-1.431Zm-22.74-.03,1.46,1.46h-1.46Zm.8-.833h1.49v1.49Zm1.49,15.524v1.489h-1.489Zm-2.293.657V56.174H464.8Z" transform="translate(-439.726 -14.962)" fill="silver"/>
  </g>
</svg>
