<svg xmlns="http://www.w3.org/2000/svg" width="70.5" height="70.5" viewBox="0 0 70.5 70.5">
  <g id="Icon-Rehab" transform="translate(0.25 0.25)">
    <path id="Path_324" data-name="Path 324" d="M604.161,70a35,35,0,1,1,35-35,35.04,35.04,0,0,1-35,35m0-69.421A34.421,34.421,0,1,0,638.583,35,34.46,34.46,0,0,0,604.161.579" transform="translate(-569.161)" fill="none" stroke="#575757" stroke-width="0.5"/>
    <path id="Path_325" data-name="Path 325" d="M621.395,50.823a.6.6,0,0,0-.123.136l-.59-.362a.578.578,0,1,0-.6.986l.952.584-.218,1.51-1.244.07A.578.578,0,0,0,619.6,54.9h.033l1.01-.057-.157,1.09a.579.579,0,0,0,.491.655l5.343.77a.565.565,0,0,0,.082.006.581.581,0,0,0,.573-.5l.14-.971.86.528a.578.578,0,0,0,.6-.986l-1.285-.788.027-.183,1.608-.09a.578.578,0,0,0,.544-.61.571.571,0,0,0-.61-.544l-1.374.077.167-1.162a.578.578,0,0,0-.49-.655l-5.343-.77a.578.578,0,0,0-.429.109m.709,2,1.163.713-1.276.072Zm3.809,3.307-4.2-.6.108-.75L625,54.6l1.044.64Zm.4-2.765-1.017.057-2.221-1.362,3.357.484Zm7.71-7.455-1.312-1.037.874-6.066a.58.58,0,0,0-.491-.655l-3.192-.46a.579.579,0,0,0-.655.49l-.512,3.55-7.927-6.265a.581.581,0,0,0-.584-.079l-15.077,6.366a.578.578,0,0,0,.142,1.106l1.145.165-2.991,20.755h-2.374a.579.579,0,0,0,0,1.157h32.057a.579.579,0,0,0,0-1.157h-3.14l2.451-17.008,1.145.165a.565.565,0,0,0,.082.006.578.578,0,0,0,.359-1.032m-26.51-3.9.848-.358,20.581,1.717,2.676,2.115Zm18.115-1.259-10.692-1.876.574-.242,8.036.472Zm.067,1.187-15.039-1.255,2.314-.977Zm4.614-3.018,2.047.3-.7,4.828-1.876-1.482Zm-9.951-2.333,1.6,1.267-4.042-.237ZM609.785,63.782l.3-2.094,4.58-.827.743.5-.348,2.418ZM616.514,53.7l-1.635.834-3.42-2.374.25-1.733,5.169.745Zm-1.59,5.941-3.229-2.184,3.093-1.578,1.284.891-.394,2.734Zm1.033-4.359.355-.181-.056.389Zm-2.247-.152L610.819,56.6l.456-3.165Zm-.417,4.8-3.033.548.341-2.368Zm15.989.6-.882.081-1.182-1.506a.58.58,0,0,0-.448-.222.606.606,0,0,0-.453.211l-1.863,2.259.893.736,1.406-1.7.933,1.188a.584.584,0,0,0,.507.219l.921-.084-.3,2.067H616.23l.245-1.7.594.4a.578.578,0,0,0,.649-.958l-1.059-.716.046-.318,1.12-.2a.578.578,0,1,0-.205-1.139l-.74.134.256-1.78,1.2.836a.578.578,0,1,0,.66-.95l-1.68-1.166.255-1.771,1.342-.684a.578.578,0,1,0-.525-1.03l-.614.314.33-2.292a.579.579,0,0,0-.491-.655L611.3,49.2a.58.58,0,0,0-.656.49l-.25,1.733-1.381-.959a.579.579,0,0,0-.66.95l1.856,1.289-.492,3.42-.77-.521a.579.579,0,0,0-.649.958l1.122.758-1.417.723a.578.578,0,0,0,.525,1.03l.824-.421-.3,2.049-1.319.238a.578.578,0,1,0,.205,1.139l.939-.17-.27,1.877h-4l2.515-17.454,1.711-.491-.106.734a.578.578,0,0,0,.49.655l1.619.234L611,46.313l-1.045-.15.15-1.046a.578.578,0,0,0-.732-.639l-2.07.595.271-1.88L619.434,44.9l1.228.177-.165,1.148a.579.579,0,0,0,.443.646l3.768.871-.417.9,1.051.485.716-1.548a.579.579,0,0,0-.4-.807l-3.943-.912.089-.621,9.483,1.366Z" transform="translate(-582.365 -14.898)" fill="silver"/>
  </g>
</svg>
