<svg xmlns="http://www.w3.org/2000/svg" width="70.5" height="70.5" viewBox="0 0 70.5 70.5">
  <g id="Icon-DistressedFinancial" transform="translate(0.25 -0.25)">
    <path id="Path_321" data-name="Path 321" d="M177.29,70a35,35,0,1,1,35-35,35.04,35.04,0,0,1-35,35m0-69.421A34.421,34.421,0,1,0,211.711,35,34.46,34.46,0,0,0,177.29.579" transform="translate(-142.29 0.5)" fill="none" stroke="#575757" stroke-width="0.5"/>
    <path id="Path_329" data-name="Path 329" d="M195.481,42.478a2.536,2.536,0,1,0,2.536,2.536,2.539,2.539,0,0,0-2.536-2.536m0,3.915a1.379,1.379,0,1,1,1.379-1.379,1.38,1.38,0,0,1-1.379,1.379m-5.367-7.645a.577.577,0,0,1-.678.458,18.2,18.2,0,0,0-7.45.126.566.566,0,0,1-.131.014.578.578,0,0,1-.13-1.142,19.352,19.352,0,0,1,7.93-.134.579.579,0,0,1,.458.677m12.8,5.242h0l-2.017-.864a12.418,12.418,0,0,0-2.9-3.524,26.765,26.765,0,0,1,1.823-2.368.577.577,0,0,0-.115-.859,5.239,5.239,0,0,0-4.967-.437,4.8,4.8,0,0,1-3.264.287,20.473,20.473,0,0,0-5.456-.725c-6.523,0-12.149,3-14.681,7.3a3.713,3.713,0,0,0-2.954-.122c-.08.026-.159.054-.238.084a2.623,2.623,0,0,0-2.2-.478,4.426,4.426,0,0,0-2.933,3.057.578.578,0,0,0,1.1.345,3.3,3.3,0,0,1,2.087-2.275,1.457,1.457,0,0,1,.708.008,3.5,3.5,0,0,0-1.446,1.985c-.358,1.589.4,2.525,1.31,2.748a1.823,1.823,0,0,0,.44.053,2.451,2.451,0,0,0,2.275-2.017A3.373,3.373,0,0,0,169,43.7a2.378,2.378,0,0,1,1.794.137A9.817,9.817,0,0,0,169.9,47.9a11.091,11.091,0,0,0,4.742,8.791l1.671,6.555a1.566,1.566,0,0,0,1.521,1.184h4a1.571,1.571,0,0,0,1.569-1.568V60.134c.467.058.944.1,1.423.128.209.012.421.024.632.028.183,0,.36.006.547.006h.019c.182,0,.373,0,.589-.007.238-.008.476-.017.7-.035.434-.025.876-.065,1.319-.121v2.724a1.572,1.572,0,0,0,1.573,1.568h4a1.565,1.565,0,0,0,1.52-1.182l1.672-6.557a12.252,12.252,0,0,0,4.1-5.325h.4c.014,0,.026-.007.04-.008a2.485,2.485,0,0,0,2.476-2.482v-2.6a2.481,2.481,0,0,0-1.5-2.283M168.37,45.886c-.237.892-.856,1.252-1.322,1.139-.447-.11-.622-.635-.457-1.37a2.639,2.639,0,0,1,1.32-1.509,2.334,2.334,0,0,1,.459,1.741m34.885,2.986a1.327,1.327,0,0,1-1.326,1.326h-.842a.5.5,0,0,0-.051.008h-3.007a2.365,2.365,0,0,0-2.363,2.363.579.579,0,0,0,1.157,0,1.207,1.207,0,0,1,1.206-1.206h2.215a11.36,11.36,0,0,1-3.711,4.523.577.577,0,0,0-.215.32L194.6,62.96a.41.41,0,0,1-.4.309h-4a.414.414,0,0,1-.416-.411v-3.39a.577.577,0,0,0-.578-.579.6.6,0,0,0-.09.007c-.629.1-1.259.168-1.888.2-.163.013-.33.02-.506.027l.264-1.329a.579.579,0,0,0-.29-.62l-.768-.42.691-1.646,1.139,1.139a2.225,2.225,0,1,0,3.149-3.145l-2.059-2.06,2.059-2.062a2.228,2.228,0,0,0,0-3.145,2.279,2.279,0,0,0-3.149,0l-1.379,1.379.205-1.653a.578.578,0,0,0-.267-.561l-1.365-.856,1.008-1.532a.579.579,0,0,0-.967-.636l-1.333,2.027a.579.579,0,0,0,.176.809l1.554.973-.2,1.6-1.552-1.552a2.279,2.279,0,0,0-3.149,0,2.223,2.223,0,0,0,0,3.145l2.062,2.062-2.062,2.06a2.225,2.225,0,0,0,3.149,3.145l2.059-2.059.036.036-1.075,2.563a.578.578,0,0,0,.256.731l.853.466-.227,1.144h-.06c-.2,0-.4-.015-.592-.025a19.135,19.135,0,0,1-1.974-.212.578.578,0,0,0-.67.572v3.39a.412.412,0,0,1-.412.411h-4a.411.411,0,0,1-.4-.311l-1.722-6.753a.579.579,0,0,0-.215-.321,10.021,10.021,0,0,1-4.441-7.988c0-6.2,6.71-11.24,14.957-11.24a19.284,19.284,0,0,1,5.147.684,5.946,5.946,0,0,0,4.043-.345,4.069,4.069,0,0,1,3.282.021,29,29,0,0,0-1.749,2.379.579.579,0,0,0,.123.772,11.42,11.42,0,0,1,3.1,3.675.576.576,0,0,0,.286.266l2.205.945a1.327,1.327,0,0,1,.8,1.22Zm-18.374,4.5-2.059,2.059a1.094,1.094,0,0,1-1.514,0,1.065,1.065,0,0,1,0-1.507l2.062-2.06Zm-.691-2.328,1.51-1.512,1.512,1.512-1.513,1.51-.756-.756Zm2.644,2.645,0,0-.315-.314,1.462-1.46.05-.05,2.059,2.06a1.066,1.066,0,0,1,0,1.508h0a1.094,1.094,0,0,1-1.513,0Zm1.2-3.463-1.513-1.512,2.06-2.059a1.094,1.094,0,0,1,1.512,0,1.069,1.069,0,0,1,0,1.509Zm-4.659,0-2.062-2.061a1.068,1.068,0,0,1,1.513-1.509l2.059,2.059Z" transform="translate(-151.012 -14.962)" fill="silver"/>
  </g>
</svg>
