<?xml version="1.0" encoding="utf-8"?>
<svg id="Layer_2" viewBox="0 0 530.6 282.71" xmlns="http://www.w3.org/2000/svg">
  <defs>
    <style>.cls-1{fill:#fff;}.cls-2{fill:#231f20;}</style>
  </defs>
  <g id="Artwork">
    <g id="AndoverProperties_Logo">
      <path id="Properties" class="cls-2" d="m255.05,265.75c0,1.16.15,1.92.45,2.28.3.35.93.53,1.89.53h2.99v2.88h-18.77v-2.88h2.54c.96,0,1.6-.18,1.94-.53.33-.35.5-1.11.5-2.28v-27.75c0-1.18-.16-1.96-.5-2.32-.33-.36-.98-.54-1.94-.54h-2.54v-2.83h20.9c4.27,0,7.52.95,9.73,2.84,2.21,1.89,3.31,4.64,3.31,8.28,0,3.83-1.29,6.66-3.86,8.51-2.57,1.84-6.54,2.76-11.88,2.76-1.24,0-2.19,0-2.85,0-.66,0-1.29-.03-1.87-.05l-.02,11.11Zm0-27.2v13c.31.07.66.13,1.04.15.39.03.83.04,1.34.04,3.44,0,5.81-.61,7.1-1.84,1.3-1.23,1.94-3.38,1.94-6.46s-.57-5.18-1.71-6.42c-1.14-1.25-3.15-1.87-6.01-1.87-1.62,0-2.65.2-3.06.6-.43.41-.64,1.35-.64,2.81Zm21.76,32.89v-2.7l2.22-.05c.65-.05,1.08-.22,1.3-.49.21-.27.32-.78.32-1.53v-16.21c0-.87-.17-1.44-.51-1.72-.34-.28-1.04-.42-2.11-.42-.14,0-.37,0-.69.02-.32.02-.56.03-.73.03v-2.67l10.56-.58v7.46c.92-2.45,2.03-4.3,3.33-5.55,1.3-1.24,2.77-1.86,4.4-1.86,1.51,0,2.74.49,3.69,1.45.95.97,1.42,2.21,1.42,3.73s-.35,2.66-1.05,3.56c-.7.89-1.63,1.34-2.76,1.34-1.07,0-1.93-.39-2.6-1.17-.67-.79-1.01-1.81-1.01-3.06,0-.5.07-.95.21-1.37.13-.42.36-.83.65-1.22-1.76.65-3.11,2.05-4.03,4.18-.93,2.13-1.39,4.91-1.39,8.34v5.74c0,.75.11,1.26.33,1.54.23.29.66.44,1.29.48l3.03.05v2.7h-15.88Zm24.02-12.83c0-4.05,1.21-7.37,3.63-9.93,2.41-2.56,5.54-3.85,9.39-3.85s6.93,1.29,9.37,3.86c2.44,2.58,3.66,5.88,3.66,9.91s-1.21,7.33-3.63,9.89c-2.41,2.55-5.55,3.82-9.4,3.82s-6.99-1.28-9.4-3.81c-2.41-2.54-3.61-5.83-3.61-9.9Zm8.22,0c0,3.63.38,6.3,1.14,7.98.75,1.69,1.96,2.53,3.61,2.53s2.88-.84,3.66-2.53c.77-1.68,1.15-4.35,1.15-7.98s-.38-6.37-1.15-8.05c-.77-1.69-1.98-2.53-3.63-2.53s-2.88.84-3.64,2.53c-.77,1.68-1.15,4.37-1.15,8.05Zm30.08,19.34c0,.75.12,1.28.35,1.58.23.29.65.43,1.25.43h2.67v2.76h-15.26v-2.64l1.97-.11c.63-.04,1.06-.19,1.29-.48.22-.28.33-.79.33-1.53v-27.49c0-.87-.17-1.44-.51-1.72-.34-.28-1.03-.42-2.09-.42-.14,0-.37,0-.69.02-.32.02-.57.03-.75.03v-2.67l11.16-.58v4.45c.94-1.53,2.05-2.64,3.34-3.37,1.28-.72,2.79-1.09,4.53-1.09,2.92,0,5.34,1.25,7.26,3.73,1.92,2.49,2.88,5.66,2.88,9.53s-1.04,7.31-3.12,9.99c-2.09,2.67-4.65,4.01-7.69,4.01-1.39,0-2.65-.28-3.76-.85-1.12-.56-2.17-1.44-3.16-2.61v9.04Zm-.18-19.28c0,3.22.44,5.71,1.33,7.46.89,1.74,2.16,2.62,3.83,2.62,1.49,0,2.64-.85,3.43-2.54.78-1.7,1.18-4.13,1.18-7.33s-.38-5.77-1.14-7.41c-.75-1.64-1.9-2.46-3.42-2.46-1.7,0-2.99.82-3.88,2.46-.88,1.64-1.33,4.04-1.33,7.2Zm42.02,3.83l2.09,1.14c-.74,2.84-2.04,5-3.9,6.47-1.86,1.47-4.22,2.22-7.1,2.22-3.94,0-7.11-1.27-9.52-3.79-2.42-2.52-3.63-5.82-3.63-9.92s1.2-7.41,3.6-9.96c2.39-2.54,5.53-3.82,9.41-3.82,3.53,0,6.28,1.16,8.24,3.5,1.96,2.34,2.94,5.62,2.94,9.84v.71h-15.93v.37c0,3.13.55,5.5,1.66,7.09,1.1,1.6,2.74,2.4,4.91,2.4,1.59,0,2.99-.52,4.2-1.57,1.2-1.05,2.21-2.61,3.03-4.67Zm-13.8-6.45h7.29c.5,0,.84-.13,1.04-.37.2-.25.3-.69.3-1.35,0-2.33-.31-4.03-.92-5.08-.61-1.06-1.57-1.59-2.89-1.59-1.51,0-2.66.7-3.46,2.08-.79,1.39-1.25,3.49-1.37,6.32Zm17.42,15.39v-2.7l2.22-.05c.65-.05,1.09-.22,1.3-.49.21-.27.32-.78.32-1.53v-16.21c0-.87-.16-1.44-.51-1.72-.34-.28-1.04-.42-2.11-.42-.14,0-.37,0-.69.02-.31.02-.56.03-.73.03v-2.67l10.57-.58v7.46c.93-2.45,2.03-4.3,3.33-5.55,1.29-1.24,2.77-1.86,4.4-1.86,1.51,0,2.74.49,3.69,1.45.95.97,1.42,2.21,1.42,3.73s-.35,2.66-1.05,3.56c-.7.89-1.63,1.34-2.77,1.34-1.06,0-1.93-.39-2.6-1.17-.68-.79-1.01-1.81-1.01-3.06,0-.5.07-.95.21-1.37.14-.42.35-.83.65-1.22-1.76.65-3.1,2.05-4.03,4.18-.92,2.13-1.39,4.91-1.39,8.34v5.74c0,.75.11,1.26.33,1.54.23.29.66.44,1.29.48l3.04.05v2.7h-15.88Zm41.84-10.24c0,.12.02.31.04.57.02.25.03.44.03.57,0,3.17-.73,5.65-2.21,7.42-1.47,1.77-3.52,2.66-6.15,2.66-2.4,0-4.09-.64-5.1-1.93-1-1.28-1.5-3.55-1.5-6.8v-14.78h-3.41v-2.92c2.35-.17,4.16-1.21,5.47-3.12,1.3-1.9,2-4.58,2.13-8.04h3.27v10.87h6.39v3.21h-6.39v14.36c0,1.84.15,3.05.44,3.65.29.61.81.9,1.55.9.92,0,1.61-.55,2.08-1.64.47-1.09.73-2.75.78-4.97h2.59Zm5.16-24.97c0-1.34.4-2.48,1.21-3.41.81-.93,1.79-1.4,2.95-1.4s2.08.47,2.9,1.41c.81.94,1.22,2.08,1.22,3.4s-.4,2.46-1.22,3.42c-.8.97-1.78,1.45-2.91,1.45s-2.14-.47-2.95-1.42c-.81-.94-1.21-2.09-1.21-3.45Zm8.11,30.44c0,.76.11,1.28.32,1.55.21.27.65.42,1.3.46l1.87.05v2.7h-14.63v-2.7l2.06-.05c.64-.04,1.07-.19,1.29-.48.23-.28.34-.79.34-1.54v-16.22c0-.86-.17-1.44-.51-1.72-.34-.28-1.04-.42-2.09-.42-.14,0-.37,0-.69.02-.31.02-.56.03-.75.03v-2.67l11.48-.58v21.56Zm27.36-4.17l2.09,1.14c-.74,2.84-2.04,5-3.9,6.47-1.86,1.47-4.22,2.22-7.09,2.22-3.94,0-7.11-1.27-9.52-3.79-2.42-2.52-3.63-5.82-3.63-9.92s1.2-7.41,3.6-9.96c2.39-2.54,5.53-3.82,9.41-3.82,3.53,0,6.28,1.16,8.24,3.5,1.96,2.34,2.94,5.62,2.94,9.84v.71h-15.93v.37c0,3.13.55,5.5,1.66,7.09,1.1,1.6,2.74,2.4,4.91,2.4,1.59,0,2.99-.52,4.19-1.57,1.2-1.05,2.21-2.61,3.03-4.67Zm-13.8-6.45h7.29c.5,0,.85-.13,1.05-.37.2-.25.3-.69.3-1.35,0-2.33-.31-4.03-.91-5.08-.61-1.06-1.57-1.59-2.89-1.59-1.51,0-2.66.7-3.46,2.08-.79,1.39-1.25,3.49-1.37,6.32Zm18.18,5.87h2.03c.97,2.45,2.21,4.32,3.71,5.62,1.5,1.29,3.17,1.94,5.02,1.94,1.2,0,2.16-.31,2.87-.91.71-.6,1.07-1.43,1.07-2.44,0-.91-.31-1.62-.94-2.11-.62-.49-1.95-.98-3.99-1.45-3.51-.78-5.96-1.85-7.4-3.24-1.43-1.38-2.14-3.31-2.14-5.81,0-2.76.8-4.89,2.39-6.4,1.6-1.52,3.87-2.27,6.8-2.27,1.1,0,2.14.16,3.11.48.98.31,1.87.78,2.67,1.37l1.86-1.45h1.95l.23,8.65h-2.22c-.84-2.03-1.9-3.62-3.21-4.77-1.32-1.15-2.72-1.71-4.24-1.71-1.14,0-2.07.29-2.8.88-.73.58-1.09,1.31-1.09,2.19,0,1.68,1.87,2.89,5.62,3.65.45.09.8.16,1.05.22,2.64.56,4.62,1.59,5.95,3.07,1.33,1.48,1.99,3.4,1.99,5.76,0,2.84-.84,5.09-2.51,6.75-1.68,1.67-3.96,2.5-6.87,2.5-1.29,0-2.52-.17-3.68-.52-1.16-.35-2.21-.87-3.15-1.54l-2.04,1.62h-1.9l-.14-10.05Z"/>
      <path id="Andover" d="m102.7,95.39c4.31.5,8.75,1.01,13.32,1.52l27.92,101.23c-28.52-.67-53.52-1.13-72.84-1.44l31.6-101.31Zm187.68-25.68l-16.86,1.04v4.38h3.03c1.39,0,2.26.21,2.61.63.36.41.54,1.25.54,2.5v31.77c3.54.17,7.1.33,10.68.49v-40.81Zm-202.59,23.91c-11.49,35.96-24.11,74.75-33.28,102.84-16-.23-25.21-.31-25.21-.31-21.12.62-14.29-21.74-14.29-21.74,1.86-25.47-13.04-71.43-13.04-71.43-8.7-27.33,14.29-19.26,14.29-19.26,0,0,27.09,4.48,71.54,9.9Zm56.16,104.52c10.62.25,21.74.52,33.22.83l8.6,32.91c4.35,15.79,7.54,25.27,14.96,32.45,1.68,1.62,11.75,5.75,17.9,8.17l-.64,10.21-87.57-2.55v-10l15.64-4.73c4.53-.53,7.22-1.25,8.07-2.17,1.28-1.44,1.92-3.28,1.92-5.52,0-2.37.97-5-1.58-15l-3.99-21.61H63.94c-5.44,20.17-6.07,27.92-5.81,32.53.27,4.85,3.77,7,8.62,9.69l21.27,5.65-.19,9.92-81.19-2.36v-10.25l3.83-.81c6.73-1.62,13.5-3.9,17.5-7.27,5.12-4.31,11.5-15.36,13.46-21.81.51-1.59,5.67-17.3,13.07-39.97,4.91.07,10.47.15,16.6.25l-3.28,10.52h78.63l-2.51-9.08Zm-41.24-102.75c-5.16-.6-10.14-1.19-14.92-1.78C101.52,50.65,113.64,11.74,116.36,0h8.81l26.29,100.61c-12.48-1.22-24.32-2.47-35.43-3.7l-6.47-23.47-6.85,21.96Zm424.76,98.88s-7.84-30.49-.02-70.67c0,0,7.41-18.33-8.05-16.91-76.17,6.98-155.97,6.99-229.01,3.83v62.54c0,1.37.24,2.28.73,2.73.49.46,1.51.68,3.06.68.18,0,.5-.01.96-.04.46-.03.83-.04,1.09-.04v4.17l-16.16.97v-7c-1.39,2.39-3,4.16-4.87,5.29-1.86,1.14-4.03,1.71-6.54,1.71-4.23,0-7.72-1.97-10.49-5.91-2.76-3.93-4.15-8.94-4.15-15.03s1.51-11.63,4.53-15.79c3.03-4.16,6.83-6.23,11.41-6.23,1.9,0,3.67.45,5.3,1.38,1.62.91,3.11,2.31,4.45,4.16v-34.08c-46.71-2.24-90.4-5.71-128.24-9.42l25.7,98.36c109.12,2.92,251.95,8.65,331.66,19.53,0,0,21.12,3.72,21.74-3.11,0,0,.62-2.48-3.11-21.12Zm-285.85-14.13h-20.95v-4.26l2.35-.21c.94-.06,1.56-.3,1.86-.72.31-.43.46-1.23.46-2.39v-17.85c0-2.97-.41-5.14-1.23-6.46-.81-1.34-2.13-2.01-3.94-2.01-2.48,0-4.27,1.05-5.4,3.17-1.11,2.11-1.67,5.58-1.67,10.42v12.8c0,1.18.16,1.98.47,2.41.31.43.94.68,1.88.77l2.42.08v4.26h-21.05v-4.26l3.22-.08c.94-.09,1.57-.34,1.88-.77.31-.43.47-1.23.47-2.41v-25.55c0-1.37-.24-2.28-.73-2.72-.49-.44-1.51-.67-3.06-.67-.21,0-.54.01-1,.04-.46.03-.81.04-1.05.04v-4.21l16.16-.91v8.17c1.65-2.8,3.46-4.87,5.42-6.19,1.96-1.32,4.19-1.98,6.73-1.98,3.8,0,6.62,1.21,8.46,3.63,1.83,2.42,2.75,6.12,2.75,11.13v19.21c0,1.18.16,1.98.48,2.42.33.46.95.7,1.87.76l3.22.08v4.26Zm99.13-4.64c-3.5,4.01-8.04,6.02-13.64,6.02s-10.14-2.01-13.64-6.01c-3.5-4-5.24-9.2-5.24-15.6s1.75-11.61,5.26-15.66c3.5-4.04,8.03-6.06,13.62-6.06s10.05,2.04,13.59,6.09c3.54,4.06,5.31,9.27,5.31,15.63s-1.75,11.56-5.26,15.59Zm57.41-31.46c-1.48.09-2.62.51-3.44,1.3-.83.77-1.64,2.31-2.48,4.58l-11.14,31.06h-5.85l-13.33-33.69c-.52-1.38-1.05-2.31-1.62-2.75-.55-.44-1.35-.67-2.38-.67h-.26v-4.38h19.61v4.38l-1.48.17c-.78.09-1.34.26-1.68.54-.33.27-.51.7-.51,1.25,0,.24.08.64.22,1.17.15.53.33,1.07.56,1.62l7.22,18.89,5.64-16.23c.18-.56.32-1.17.44-1.85.12-.68.17-1.28.17-1.81,0-1.07-.32-1.91-.96-2.53-.63-.63-1.52-.97-2.67-1.05l-1.81-.17v-4.38h15.75v4.55Zm46.99,16.3h-23.1v.58c0,4.94.8,8.67,2.4,11.19,1.59,2.52,3.98,3.77,7.13,3.77,2.3,0,4.33-.82,6.09-2.48,1.74-1.65,3.21-4.11,4.39-7.36l3.02,1.79c-1.07,4.47-2.96,7.87-5.66,10.19-2.69,2.32-6.12,3.49-10.29,3.49-5.71,0-10.32-1.99-13.81-5.96-3.51-3.97-5.26-9.18-5.26-15.64s1.74-11.67,5.23-15.7c3.47-4.01,8.02-6.02,13.65-6.02,5.12,0,9.11,1.84,11.95,5.52,2.84,3.69,4.26,8.85,4.26,15.5v1.12Zm45.06-7.83c-1.02,1.41-2.36,2.11-4.01,2.11-1.55,0-2.8-.61-3.77-1.85-.97-1.24-1.47-2.85-1.47-4.83,0-.78.11-1.49.31-2.16.19-.67.51-1.31.94-1.92-2.55,1.02-4.5,3.23-5.84,6.59-1.34,3.36-2.02,7.74-2.02,13.14v9.04c0,1.18.16,1.98.48,2.42.33.46.95.7,1.87.76l4.4.08v4.26h-23.04v-4.26l3.22-.08c.94-.09,1.57-.34,1.88-.77.31-.43.47-1.23.47-2.41v-25.55c0-1.37-.24-2.28-.74-2.72-.49-.44-1.51-.67-3.06-.67-.21,0-.54.01-1,.04-.46.03-.81.04-1.05.04v-4.21l15.32-.91v11.76c1.34-3.86,2.95-6.78,4.83-8.74,1.88-1.95,4.01-2.93,6.38-2.93,2.19,0,3.98.77,5.35,2.29,1.38,1.54,2.06,3.49,2.06,5.88s-.51,4.2-1.52,5.61Zm-56.96-7.36c.88,1.66,1.33,4.34,1.33,8.01,0,1.04-.15,1.75-.44,2.14-.29.38-.79.58-1.51.58h-10.58c.18-4.46.85-7.77,1.99-9.96,1.16-2.18,2.83-3.27,5.02-3.27,1.9,0,3.3.84,4.19,2.51Zm-155.05,3c1.17,2.58,1.75,6.59,1.75,12,0,5.01-.64,8.81-1.91,11.39-1.28,2.59-3.15,3.89-5.62,3.89-2.19,0-3.85-1.31-4.96-3.94-1.12-2.63-1.68-6.52-1.68-11.66s.58-9.17,1.74-11.71c1.17-2.56,2.94-3.84,5.34-3.84s4.18,1.29,5.34,3.89Zm54.16-.94c1.11,2.65,1.66,6.89,1.66,12.7s-.56,9.92-1.67,12.57c-1.12,2.66-2.89,3.99-5.31,3.99s-4.15-1.32-5.24-3.99c-1.1-2.65-1.65-6.85-1.65-12.57s.55-10.05,1.66-12.7c1.11-2.66,2.88-3.99,5.28-3.99s4.15,1.33,5.26,3.99Z"/>
    </g>
  </g>
</svg>